<?xml version="1.0" encoding="UTF-8"?>
<!DOCTYPE svg PUBLIC "-//W3C//DTD SVG 1.1//EN" "http://www.w3.org/Graphics/SVG/1.1/DTD/svg11.dtd">
<!-- Creator: CorelDRAW 2020 (64-Bit) -->
<svg xmlns="http://www.w3.org/2000/svg" xml:space="preserve" width="11.6929in" height="8.26772in" version="1.1" style="shape-rendering:geometricPrecision; text-rendering:geometricPrecision; image-rendering:optimizeQuality; fill-rule:evenodd; clip-rule:evenodd"
viewBox="0 0 11692.91 8267.72"
 xmlns:xlink="http://www.w3.org/1999/xlink"
 xmlns:xodm="http://www.corel.com/coreldraw/odm/2003">
 <defs>
  <style type="text/css">
   <![CDATA[
    .fil1 {fill:#EF9215;fill-rule:nonzero}
    .fil13 {fill:#E4307C;fill-rule:nonzero}
    .fil2 {fill:#E22D7B;fill-rule:nonzero}
    .fil10 {fill:#DF3125;fill-rule:nonzero}
    .fil14 {fill:#A23C2C;fill-rule:nonzero}
    .fil8 {fill:#A7822A;fill-rule:nonzero}
    .fil0 {fill:#ABC523;fill-rule:nonzero}
    .fil6 {fill:#A32974;fill-rule:nonzero}
    .fil11 {fill:#A32A73;fill-rule:nonzero}
    .fil4 {fill:#4DA6DD;fill-rule:nonzero}
    .fil7 {fill:#4FA5DB;fill-rule:nonzero}
    .fil12 {fill:#139750;fill-rule:nonzero}
    .fil5 {fill:#1D8C3F;fill-rule:nonzero}
    .fil9 {fill:#443279;fill-rule:nonzero}
    .fil3 {fill:#FFCB13;fill-rule:nonzero}
   ]]>
  </style>
 </defs>
 <g id="Layer_x0020_1">
  <metadata id="CorelCorpID_0Corel-Layer"/>
  <path class="fil0" d="M3731.53 3466.82c154.31,-121.4 342.87,-187.13 538.79,-187.13l0.16 435.67c-152.02,0.09 -287.6,78.6 -369.06,202.24 -202.3,306.93 11.37,723.66 369.06,723.79l-0.26 435.69c-189.92,0 -380.39,-62.15 -539.83,-188.02 -8.86,-7.01 -17.4,-14.24 -25.92,-21.52l0 -1378.34c8.87,-7.55 17.81,-15.09 27.06,-22.37l0 0z"/>
  <path class="fil1" d="M4270.48 3279.69l0 0c0.11,0 0.21,0 0.3,0l-0.3 0z"/>
  <path class="fil2" d="M4270.48 4641.39l0 0c246.66,-0.18 446.53,-206.91 446.56,-463.02 -0.11,-255.16 -199.04,-462.96 -446.56,-463.01l0.3 -435.67c633.21,0 1055.95,659.27 813.26,1246.81 -135.2,327.31 -451.52,550.57 -813.4,550.57l-0.17 -435.69z"/>
  <path class="fil3" d="M4270.48 4641.39l0 0c120.3,0 217.83,97.53 217.83,217.86 0,120.28 -97.53,217.83 -217.83,217.83l0 0c-120.31,0 -217.84,-97.54 -217.84,-217.83 0,-120.33 97.52,-217.86 217.84,-217.86zm0 -1361.7l0 0c120.3,0 217.83,97.52 217.83,217.84 0,120.3 -97.53,217.83 -217.83,217.83l0 0c-120.31,0 -217.84,-97.53 -217.84,-217.83 0,-120.32 97.52,-217.84 217.84,-217.84z"/>
  <polygon class="fil4" points="3326.43,5479.49 3762.11,5479.49 3762.11,3504.04 3326.43,3504.04 "/>
  <path class="fil5" d="M3740.59 3409.55c-247.14,155.99 -411.3,431.5 -411.3,745.37 0,322.89 173.72,605.16 432.81,758.5l0 -1409.37c0,-33.85 -7.72,-65.92 -21.52,-94.5z"/>
  <path class="fil1" d="M3326.43 5479.49c0,-120.32 97.53,-217.85 217.83,-217.85 120.31,0 217.84,97.53 217.84,217.85 0,120.3 -97.53,217.84 -217.84,217.84 -120.31,0 -217.83,-97.54 -217.83,-217.84z"/>
  <path class="fil6" d="M3326.43 3502.7c0,-120.32 97.53,-217.84 217.83,-217.84 120.31,0 217.84,97.52 217.84,217.84 0,120.32 -97.53,217.84 -217.84,217.84 -120.31,0 -217.83,-97.52 -217.83,-217.84l0 0z"/>
  <path class="fil0" d="M3253.73 4529.83c0.31,-500.65 -630.27,-558.98 -773.52,-609.47 -32.61,-11.44 -108.16,-42.58 -120.95,-74.58 -0.9,-2.67 -2.01,-5.82 -2.14,-14.71l-435.68 1.4c0.87,319.35 266.89,473.63 579.56,544.7 69.55,14.69 289.5,65.91 314.49,133.55 1.16,3.54 2.48,8.44 2.56,19.12 54.5,-0.01 381.11,-0.01 435.67,-0.01z"/>
  <path class="fil1" d="M2207.15 4514.58c121.55,79.73 239.13,135.26 400.7,135.26 96.44,0.04 210.15,-23.61 210.2,-120l435.67 0c0,305.04 -238.39,555.67 -645.88,555.67 -245.04,0 -440.71,-76.35 -639.58,-206.58l238.87 -364.35z"/>
  <path class="fil7" d="M3061.44 3419.97c-63.06,-32.59 -131.59,-64.19 -204.87,-89.92 -451.83,-157.65 -935.15,20.98 -935.15,497.4l435.69 3.61c0,-60.48 9.19,-120.18 183.33,-120.18 212.15,0 300.17,120.46 420.74,120.46l100.26 -411.37z"/>
  <path class="fil5" d="M2139.28 3612.79c-120.31,0 -217.84,97.52 -217.84,217.84 0,0.59 0,1.22 0,1.83 1.01,119.66 98.33,216 217.8,216 0.57,0 1.12,0 1.69,0 124.48,-0.94 218.19,-105.26 216.18,-217.84 0.01,-120.3 -97.51,-217.83 -217.83,-217.83z"/>
  <path class="fil8" d="M2818.06 4529.83c0,-120.3 97.54,-217.84 217.84,-217.84 120.31,0 217.83,97.53 217.83,217.84 0,120.3 -97.53,217.84 -217.83,217.84 -120.31,0 -217.84,-97.54 -217.84,-217.84z"/>
  <path class="fil2" d="M2743.51 3613.45c0,-120.31 97.53,-217.84 217.84,-217.84 120.31,0 217.83,97.53 217.83,217.84 0,120.32 -97.53,217.85 -217.83,217.85 -120.31,0 -217.84,-97.53 -217.84,-217.85z"/>
  <path class="fil9" d="M1869.87 4698.76c0,-120.3 97.52,-217.84 217.84,-217.84 120.31,0 217.83,97.54 217.83,217.84 0,120.3 -97.52,217.83 -217.83,217.83 -120.31,0 -217.84,-97.53 -217.84,-217.83z"/>
  <path class="fil0" d="M9392.2 3461.25c-154.32,-121.41 -342.87,-187.13 -538.79,-187.13l-0.16 435.67c152.02,0.09 287.59,78.6 369.06,202.24 202.3,306.93 -11.37,723.65 -369.06,723.78l0.25 435.69c189.92,0 380.4,-62.15 539.83,-188.02 8.86,-7.01 17.4,-14.24 25.92,-21.52l0 -1378.34c-8.87,-7.55 -17.81,-15.09 -27.06,-22.37l0 0z"/>
  <path class="fil7" d="M9822.62 3509.02l-429.45 -47.65c-0.05,-0.05 -0.09,-0.09 -0.14,-0.12 -0.02,0.03 -0.02,0.06 -0.03,0.09l-0.81 -0.09c0.22,0.18 0.44,0.39 0.7,0.57 -3.86,15.2 -5.91,30.98 -5.91,47.2 0,1417.97 -3.09,1338.73 7.13,1373.81 -0.28,0.21 -0.52,0.45 -0.81,0.65l0.97 -0.11c0.02,0.04 0.03,0.08 0.03,0.11 0.06,-0.04 0.12,-0.09 0.21,-0.15l428.09 -52.39 0 -1321.93z"/>
  <path class="fil5" d="M9392.2 3461.25c-3.44,15.38 -5.26,31.37 -5.26,47.77 0,1426.87 -2.72,1337.65 6.4,1374.46 228.28,-180.19 342.06,-445.49 342,-710.69 -0.07,-265.94 -114.67,-531.78 -343.14,-711.55z"/>
  <path class="fil1" d="M8853.25 3274.12l0 0c-0.11,0 -0.21,0 -0.3,0l0.3 0z"/>
  <path class="fil1" d="M8853.25 4635.81l0 0c-246.66,-0.18 -446.53,-206.91 -446.56,-463.02 0.11,-255.16 199.04,-462.96 446.56,-463.01l-0.3 -435.67c-633.21,0 -1055.95,659.27 -813.26,1246.81 135.2,327.31 451.52,550.57 813.4,550.57l0.17 -435.69z"/>
  <path class="fil8" d="M8853.25 4635.81l0 0c-120.3,0 -217.83,97.53 -217.83,217.86 0,120.28 97.53,217.83 217.83,217.83l0 0c120.31,0 217.84,-97.54 217.84,-217.83 0,-120.33 -97.53,-217.86 -217.84,-217.86zm0 -1361.7l0 0c-120.3,0 -217.83,97.53 -217.83,217.84 0,120.3 97.53,217.83 217.83,217.83l0 0c120.31,0 217.84,-97.52 217.84,-217.83 0,-120.31 -97.53,-217.84 -217.84,-217.84z"/>
  <path class="fil10" d="M9386.95 3509.02c0,-120.31 97.54,-217.84 217.84,-217.84 120.3,0 217.83,97.53 217.83,217.84 0,120.3 -97.53,217.83 -217.83,217.83 -120.3,0 -217.84,-97.52 -217.84,-217.83z"/>
  <path class="fil2" d="M9386.95 4830.95c0,-120.32 97.54,-217.85 217.84,-217.85 120.3,0 217.83,97.53 217.83,217.85 0,120.31 -97.53,217.84 -217.83,217.84 -120.3,0 -217.84,-97.53 -217.84,-217.84z"/>
  <path class="fil11" d="M7869.15 5002c-52.54,7.08 -102.79,10.65 -150.68,10.65 -188.35,0 -340.33,-54.81 -453.18,-163.7 -178.2,-171.98 -177.75,-407.96 -173.98,-471.94l0 -1583.16 435.68 0 0 1605.1 -0.88 5.98c-1.11,25.06 4.38,95.7 42.88,131.62 40.08,37.41 125.94,49.35 241.81,33.7l58.35 431.75z"/>
  <path class="fil12" d="M7622.15 4786.11c0,-120.31 97.53,-217.83 217.83,-217.83 120.31,0 217.84,97.52 217.84,217.83 0,120.31 -97.52,217.84 -217.84,217.84 -120.3,0 -217.83,-97.53 -217.83,-217.84z"/>
  <path class="fil9" d="M7091.3 2793.84c0,-120.32 97.54,-217.84 217.86,-217.84 120.3,0 217.83,97.52 217.83,217.84 0,120.3 -97.53,217.83 -217.83,217.83 -120.32,0 -217.86,-97.53 -217.86,-217.83z"/>
  <path class="fil1" d="M5724.96 4404.91l0 0c40.48,70.12 89.72,125.7 143.07,166.03 53.53,40.34 110.68,65.83 172.17,77.2 41.09,7.5 84.45,8.74 131.44,2.16 62.52,-8.84 131.93,-31.7 207.92,-75.56 0.22,-0.1 0.45,-0.24 0.64,-0.36 47.11,-27.19 94.08,-67.9 132.87,-116.39 39.11,-48.57 69.72,-104.67 87.43,-159.05l414.04 135.57c-35.54,108.25 -91.19,208.2 -161.68,296.17 -70.62,87.84 -156.29,164 -255.45,221.38 -0.06,0.05 -0.12,0.08 -0.2,0.11 -100.43,58 -203.78,98.11 -307.36,119.57 -103.61,21.5 -207.32,24.11 -306.34,8.65 -66.03,-10.3 -129.91,-28.49 -190.39,-53.71 -80.65,-33.6 -155.17,-79.58 -221.85,-135.22 -88.95,-74.25 -164.03,-165.48 -223.66,-268.73l377.33 -217.83z"/>
  <path class="fil9" d="M5650.31 3397.15c-0.24,0.14 -0.46,0.26 -0.7,0.39 -0.07,0.06 -0.16,0.1 -0.26,0.15 -413.28,238.62 -552.58,790.71 -301.72,1225.05l0.02 0 377.31 -217.83c-131.68,-228.25 -60.84,-512.6 142.48,-630.05 167.28,-96.38 340.69,-82.1 479.41,19.46l524.22 -51.13c-253.81,-439.65 -772.84,-604.67 -1220.76,-346.05z"/>
  <path class="fil5" d="M5427.37 4325.17c-104.18,60.15 -139.87,193.37 -79.72,297.57l-0.02 0c60.17,104.21 193.39,139.9 297.58,79.74 104.19,-60.15 139.9,-193.38 79.75,-297.57 -60.17,-104.19 -193.4,-139.9 -297.59,-79.74z"/>
  <path class="fil13" d="M6346.85 3794.33l-425.99 245.94c-104.19,60.15 -139.89,193.36 -79.73,297.57 60.17,104.19 193.38,139.88 297.57,79.72l652.63 -376.78 -444.48 -246.45z"/>
  <path class="fil14" d="M6573.5 3663.46l-226.65 130.86c1.1,0.8 2.19,1.61 3.31,2.44 54.45,40.64 103.95,95.6 143.59,164.27 60.17,104.19 193.38,139.88 297.59,79.74l0 0c104.18,-60.17 139.88,-193.38 79.72,-297.58l0 0c-60.15,-104.18 -193.37,-139.89 -297.57,-79.73z"/>
  <path class="fil4" d="M6618.88 4475.63c-60.15,-104.17 -24.44,-237.41 79.75,-297.56 104.18,-60.15 237.41,-24.46 297.56,79.74 60.17,104.19 24.47,237.41 -79.73,297.57 -104.18,60.15 -237.41,24.44 -297.57,-79.75z"/>
  <path class="fil1" d="M7316.93 4273.67c-120.31,0 -217.84,97.53 -217.84,217.84 0,0.6 0,1.23 0,1.83 1.01,119.66 98.34,216 217.8,216 0.57,0 1.12,0 1.69,0 124.48,-0.94 218.18,-105.25 216.18,-217.84 0.01,-120.3 -97.51,-217.83 -217.83,-217.83z"/>
 </g>
</svg>
